<?xml version="1.0" encoding="UTF-8" standalone="no"?>
<svg width="44px" height="29px" viewBox="0 0 44 29" version="1.1" xmlns="http://www.w3.org/2000/svg" xmlns:xlink="http://www.w3.org/1999/xlink">
    <g id="Page-1" stroke="none" stroke-width="1" fill="none" fill-rule="evenodd">
        <g id="Mobile-Portrait" transform="translate(-107.000000, -525.000000)" fill="#000000">
            <g id="1483117586_48.Dashboard" transform="translate(107.000000, 525.000000)">
                <g id="Layer_1">
                    <path d="M43.8952381,23.7913929 C43.8952381,23.8027857 43.9015238,23.8110714 43.9015238,23.8214286 C43.9015238,23.8266071 43.898381,23.8317857 43.898381,23.838 C43.8994286,23.8431786 43.9015238,23.8483571 43.9015238,23.8545714 C43.9015238,24.4262857 43.4332381,24.8902857 42.8539048,24.8902857 C42.869619,24.88925 33.5238095,24.8571429 33.5238095,24.8571429 C32.9444762,24.8571429 32.4761905,24.3931429 32.4761905,23.8214286 C32.4761905,23.2486786 32.9444762,22.7857143 33.5238095,22.7857143 L41.8481905,22.7857143 C41.8680952,22.4397857 41.9047619,22.1000714 41.9047619,21.75 C41.9047619,10.88225 32.9926667,2.07142857 22,2.07142857 C11.0073333,2.07142857 2.0952381,10.88225 2.0952381,21.75 C2.0952381,22.1000714 2.13190476,22.4397857 2.1507619,22.7857143 L10.4761905,22.7857143 C11.0555238,22.7857143 11.5238095,23.2486786 11.5238095,23.8214286 C11.5238095,24.3931429 11.0555238,24.8571429 10.4761905,24.8571429 C10.4761905,24.8571429 1.13142857,24.88925 1.14609524,24.88925 C0.566761905,24.88925 0.0984761905,24.42525 0.0984761905,23.8535357 C0.0984761905,23.8473214 0.100571429,23.8421429 0.101619048,23.8369643 C0.101619048,23.83075 0.0984761905,23.8255714 0.0984761905,23.8203929 C0.0984761905,23.809 0.104761905,23.8007143 0.104761905,23.7913929 C0.0408571429,23.1181786 0,22.43875 0,21.75 C0,9.73675 9.84971429,0 22,0 C34.1502857,0 44,9.73675 44,21.75 C44,22.43875 43.9591429,23.1181786 43.8952381,23.7913929 Z M15.2145714,11.5254286 C15.6262857,11.3017143 16.1207619,11.3762857 16.4601905,11.6631786 L16.4078095,11.5772143 C25.599619,18.2265 27.4884762,21.2849643 27.5230476,21.3419286 C29.0242857,23.7831071 28.1317143,26.90475 25.533619,28.3133214 C22.9355238,29.7218929 19.6114286,28.8860714 18.1112381,26.4448929 C18.0745714,26.39 16.200381,23.32325 14.6635238,12.5228214 L14.7169524,12.60775 C14.6237143,12.1893214 14.8039048,11.7481071 15.2145714,11.5254286 Z M19.9948571,25.42575 C20.5762857,26.3692857 21.6595238,26.9565357 22.822381,26.9565357 C23.3901905,26.9565357 23.9527619,26.8146429 24.4482857,26.5453571 C25.2025714,26.13625 25.7420952,25.4775357 25.9673333,24.6872857 C26.193619,23.896 26.0773333,23.0715714 25.6499048,22.3755714 C25.6320952,22.3496786 24.0030476,19.9043571 17.204,14.7651429 C18.546,22.85925 19.9833333,25.4050357 19.9948571,25.42575 Z" id="Shape"></path>
                </g>
            </g>
        </g>
    </g>
</svg>
