<?xml version="1.0" encoding="UTF-8" standalone="no"?>
<svg width="22px" height="21px" viewBox="0 0 22 21" version="1.1" xmlns="http://www.w3.org/2000/svg" xmlns:xlink="http://www.w3.org/1999/xlink">
    <!-- Generator: Sketch 41.2 (35397) - http://www.bohemiancoding.com/sketch -->
    <title>Shape</title>
    <desc>Created with Sketch.</desc>
    <defs></defs>
    <g id="Page-1" stroke="none" stroke-width="1" fill="none" fill-rule="evenodd">
        <g id="Mobile-Portrait" transform="translate(-208.000000, -327.000000)" fill="#FF8518">
            <path d="M215.300523,333.547333 C215.300523,333.547333 211.262745,333.994556 208.569189,334.293556 C208.326412,334.322944 208.111745,334.485222 208.031245,334.731833 C207.950745,334.978444 208.031245,335.235278 208.210134,335.397556 C210.211134,337.2235 213.217745,339.957944 213.217745,339.957944 C213.215189,339.957944 212.392301,343.935667 211.845412,346.589611 C211.799412,346.829833 211.886301,347.084111 212.095856,347.236167 C212.304134,347.388222 212.572467,347.390778 212.783301,347.271944 C215.139523,345.932833 218.668745,343.919056 218.668745,343.919056 C218.668745,343.919056 222.199245,345.932833 224.551634,347.273222 C224.766301,347.390778 225.034634,347.388222 225.242912,347.236167 C225.452467,347.084111 225.539356,346.829833 225.492078,346.590889 C224.945189,343.935667 224.123578,339.957944 224.123578,339.957944 C224.123578,339.957944 227.130189,337.2235 229.131189,335.401389 C229.310078,335.234 229.389301,334.977167 229.310078,334.731833 C229.230856,334.4865 229.016189,334.324222 228.773412,334.296111 C226.079856,333.994556 222.040801,333.547333 222.040801,333.547333 C222.040801,333.547333 220.366912,329.844333 219.251412,327.375667 C219.146634,327.154611 218.926856,327 218.668745,327 C218.410634,327 218.189578,327.155889 218.089912,327.375667 C216.973134,329.844333 215.300523,333.547333 215.300523,333.547333 Z" id="Shape"></path>
        </g>
    </g>
</svg>