<?xml version="1.0" encoding="UTF-8" standalone="no"?>
<svg width="22px" height="21px" viewBox="0 0 22 21" version="1.1" xmlns="http://www.w3.org/2000/svg" xmlns:xlink="http://www.w3.org/1999/xlink">
    <!-- Generator: Sketch 41.2 (35397) - http://www.bohemiancoding.com/sketch -->
    <title>Shape</title>
    <desc>Created with Sketch.</desc>
    <defs></defs>
    <g id="Page-1" stroke="none" stroke-width="1" fill="none" fill-rule="evenodd">
        <g id="Mobile-Portrait" transform="translate(-174.000000, -327.000000)" fill="#89DB02">
            <path d="M181.300523,333.547333 C181.300523,333.547333 177.262745,333.994556 174.569189,334.293556 C174.326412,334.322944 174.111745,334.485222 174.031245,334.731833 C173.950745,334.978444 174.031245,335.235278 174.210134,335.397556 C176.211134,337.2235 179.217745,339.957944 179.217745,339.957944 C179.215189,339.957944 178.392301,343.935667 177.845412,346.589611 C177.799412,346.829833 177.886301,347.084111 178.095856,347.236167 C178.304134,347.388222 178.572467,347.390778 178.783301,347.271944 C181.139523,345.932833 184.668745,343.919056 184.668745,343.919056 C184.668745,343.919056 188.199245,345.932833 190.551634,347.273222 C190.766301,347.390778 191.034634,347.388222 191.242912,347.236167 C191.452467,347.084111 191.539356,346.829833 191.492078,346.590889 C190.945189,343.935667 190.123578,339.957944 190.123578,339.957944 C190.123578,339.957944 193.130189,337.2235 195.131189,335.401389 C195.310078,335.234 195.389301,334.977167 195.310078,334.731833 C195.230856,334.4865 195.016189,334.324222 194.773412,334.296111 C192.079856,333.994556 188.040801,333.547333 188.040801,333.547333 C188.040801,333.547333 186.366912,329.844333 185.251412,327.375667 C185.146634,327.154611 184.926856,327 184.668745,327 C184.410634,327 184.189578,327.155889 184.089912,327.375667 C182.973134,329.844333 181.300523,333.547333 181.300523,333.547333 Z" id="Shape"></path>
        </g>
    </g>
</svg>