<?xml version="1.0" encoding="UTF-8" standalone="no"?>
<svg width="22px" height="21px" viewBox="0 0 22 21" version="1.1" xmlns="http://www.w3.org/2000/svg" xmlns:xlink="http://www.w3.org/1999/xlink">
    <!-- Generator: Sketch 41.2 (35397) - http://www.bohemiancoding.com/sketch -->
    <title>Shape</title>
    <desc>Created with Sketch.</desc>
    <defs></defs>
    <g id="Page-1" stroke="none" stroke-width="1" fill="none" fill-rule="evenodd">
        <g id="Mobile-Portrait" transform="translate(-280.000000, -327.000000)" fill="#EE3D6E">
            <path d="M287.300523,333.547333 C287.300523,333.547333 283.262745,333.994556 280.569189,334.293556 C280.326412,334.322944 280.111745,334.485222 280.031245,334.731833 C279.950745,334.978444 280.031245,335.235278 280.210134,335.397556 C282.211134,337.2235 285.217745,339.957944 285.217745,339.957944 C285.215189,339.957944 284.392301,343.935667 283.845412,346.589611 C283.799412,346.829833 283.886301,347.084111 284.095856,347.236167 C284.304134,347.388222 284.572467,347.390778 284.783301,347.271944 C287.139523,345.932833 290.668745,343.919056 290.668745,343.919056 C290.668745,343.919056 294.199245,345.932833 296.551634,347.273222 C296.766301,347.390778 297.034634,347.388222 297.242912,347.236167 C297.452467,347.084111 297.539356,346.829833 297.492078,346.590889 C296.945189,343.935667 296.123578,339.957944 296.123578,339.957944 C296.123578,339.957944 299.130189,337.2235 301.131189,335.401389 C301.310078,335.234 301.389301,334.977167 301.310078,334.731833 C301.230856,334.4865 301.016189,334.324222 300.773412,334.296111 C298.079856,333.994556 294.040801,333.547333 294.040801,333.547333 C294.040801,333.547333 292.366912,329.844333 291.251412,327.375667 C291.146634,327.154611 290.926856,327 290.668745,327 C290.410634,327 290.189578,327.155889 290.089912,327.375667 C288.973134,329.844333 287.300523,333.547333 287.300523,333.547333 Z" id="Shape"></path>
        </g>
    </g>
</svg>