<?xml version="1.0" encoding="UTF-8" standalone="no"?>
<svg width="22px" height="21px" viewBox="0 0 22 21" version="1.1" xmlns="http://www.w3.org/2000/svg" xmlns:xlink="http://www.w3.org/1999/xlink">
    <!-- Generator: Sketch 41.2 (35397) - http://www.bohemiancoding.com/sketch -->
    <title>Shape</title>
    <desc>Created with Sketch.</desc>
    <defs></defs>
    <g id="Page-1" stroke="none" stroke-width="1" fill="none" fill-rule="evenodd">
        <g id="Mobile-Portrait" transform="translate(-244.000000, -327.000000)" fill="#32B3F4">
            <path d="M251.300523,333.547333 C251.300523,333.547333 247.262745,333.994556 244.569189,334.293556 C244.326412,334.322944 244.111745,334.485222 244.031245,334.731833 C243.950745,334.978444 244.031245,335.235278 244.210134,335.397556 C246.211134,337.2235 249.217745,339.957944 249.217745,339.957944 C249.215189,339.957944 248.392301,343.935667 247.845412,346.589611 C247.799412,346.829833 247.886301,347.084111 248.095856,347.236167 C248.304134,347.388222 248.572467,347.390778 248.783301,347.271944 C251.139523,345.932833 254.668745,343.919056 254.668745,343.919056 C254.668745,343.919056 258.199245,345.932833 260.551634,347.273222 C260.766301,347.390778 261.034634,347.388222 261.242912,347.236167 C261.452467,347.084111 261.539356,346.829833 261.492078,346.590889 C260.945189,343.935667 260.123578,339.957944 260.123578,339.957944 C260.123578,339.957944 263.130189,337.2235 265.131189,335.401389 C265.310078,335.234 265.389301,334.977167 265.310078,334.731833 C265.230856,334.4865 265.016189,334.324222 264.773412,334.296111 C262.079856,333.994556 258.040801,333.547333 258.040801,333.547333 C258.040801,333.547333 256.366912,329.844333 255.251412,327.375667 C255.146634,327.154611 254.926856,327 254.668745,327 C254.410634,327 254.189578,327.155889 254.089912,327.375667 C252.973134,329.844333 251.300523,333.547333 251.300523,333.547333 Z" id="Shape"></path>
        </g>
    </g>
</svg>