<?xml version="1.0" encoding="UTF-8" standalone="no"?>
<svg width="33px" height="22px" viewBox="0 0 33 22" version="1.1" xmlns="http://www.w3.org/2000/svg" xmlns:xlink="http://www.w3.org/1999/xlink">
    <!-- Generator: Sketch 41.2 (35397) - http://www.bohemiancoding.com/sketch -->
    <title>1482975050_cup</title>
    <desc>Created with Sketch.</desc>
    <defs></defs>
    <g id="Page-1" stroke="none" stroke-width="1" fill="none" fill-rule="evenodd">
        <g id="Mobile-Portrait" transform="translate(-44.000000, -268.000000)" fill="#32B3F4">
            <g id="1482975050_cup" transform="translate(44.000000, 268.000000)">
                <g id="Layer_1">
                    <g id="Group">
                        <path d="M22.6580357,20.2432611 L7.34952232,20.2432611 C6.86179018,20.2432611 6.46633036,20.6347832 6.46633036,21.1186372 C6.46633036,21.601615 6.86179018,21.9939646 7.34952232,21.9939646 L22.6580357,21.9939646 C23.1461607,21.9939646 23.5412277,21.6015664 23.5412277,21.1186372 C23.5412768,20.6347832 23.1462098,20.2432611 22.6580357,20.2432611 Z" id="Shape"></path>
                        <path d="M28.632558,5.29932301 C28.7955446,3.26300885 28.8658661,1.29425221 28.8783393,0.90959292 C28.8860982,0.672800885 28.7968705,0.442823009 28.6303973,0.272712389 C28.4643661,0.101725664 28.2348884,0.00598672566 27.9960313,0.00598672566 L0.89203125,0.00598672566 C0.652241071,0.00598672566 0.423696429,0.101725664 0.257223214,0.272712389 C0.09075,0.442823009 0.00103125,0.672800885 0.00879017857,0.90959292 C0.0329508929,1.63968142 0.264098214,8.09215487 0.946294643,9.85663274 C2.27110714,13.2846903 5.53958036,19.035354 12.5400491,19.035354 L16.3479643,19.035354 C21.0899464,19.035354 24.1173527,16.3963274 25.990692,13.6282699 C26.6966563,14.0727965 27.5315759,14.3344115 28.428125,14.3344115 C30.9444732,14.3344115 32.9916518,12.3057876 32.9916518,9.81131858 C32.9916518,7.38606195 31.0535893,5.40615929 28.632558,5.29932301 Z M26.6048259,7.71430973 C26.5108348,8.39392478 26.4059911,8.93506637 26.2917188,9.23002212 C26.1261295,9.65916814 25.939817,10.097708 25.7319464,10.5370752 C25.4352902,11.1670929 25.09375,11.7996903 24.7008438,12.4117965 C23.0150938,15.0370973 20.3913973,17.2845531 16.3480134,17.2845531 L12.5400982,17.2845531 C6.89415179,17.2845531 4.01598214,12.9042168 2.59545982,9.23002212 C2.20820089,8.22809735 1.92740625,4.43845133 1.80974554,1.75673894 L27.0784152,1.75673894 C27.0266071,2.92789823 26.9438616,4.30937168 26.8351875,5.57884956 C26.7678616,6.36019027 26.6906652,7.09456195 26.6048259,7.71430973 Z M28.428125,12.5836106 C27.8631964,12.5836106 27.3370625,12.4152035 26.8971607,12.1280354 C27.3319063,11.3210442 27.676442,10.5421858 27.9417188,9.85663274 C28.1607857,9.28813717 28.3332991,8.23408407 28.4678527,7.04155752 C29.9918929,7.06292478 31.2252188,8.29653097 31.2252188,9.81131858 C31.2252188,11.3397832 29.9703348,12.5836106 28.428125,12.5836106 Z" id="Shape"></path>
                        <polygon id="Path-2" points="1.1171875 3.03125 28.3242188 2.50976562 27.4335938 10.1308594 23.6855469 15.3847656 19.1914062 17.8164062 11.7851562 17.8359375 6.53320312 16.1210938 2.36523438 9.38867188"></polygon>
                    </g>
                </g>
            </g>
        </g>
    </g>
</svg>