<?xml version="1.0" encoding="UTF-8" standalone="no"?>
<svg width="34px" height="34px" viewBox="0 0 34 34" version="1.1" xmlns="http://www.w3.org/2000/svg" xmlns:xlink="http://www.w3.org/1999/xlink">
    <g id="Page-1" stroke="none" stroke-width="1" fill="none" fill-rule="evenodd">
        <g id="Mobile-Portrait" transform="translate(-196.000000, -522.000000)" fill="#000000">
            <g id="1483117672_office-15" transform="translate(196.000000, 522.000000)">
                <g id="Layer_1">
                    <g id="Group">
                        <path d="M32.4416667,1.41666667 L25.5,1.41666667 C25.5,0.566666667 24.9333333,0 24.0833333,0 C23.2333333,0 22.6666667,0.566666667 22.6666667,1.41666667 L11.3333333,1.41666667 C11.3333333,0.566666667 10.7666667,0 9.91666667,0 C9.06666667,0 8.5,0.566666667 8.5,1.41666667 L1.55833333,1.41666667 C0.708333333,1.41666667 0,2.125 0,2.975 L0,32.4416667 C0,33.2916667 0.708333333,34 1.55833333,34 L32.4416667,34 C33.2916667,34 34,33.2916667 34,32.4416667 L34,2.975 C34,2.125 33.2916667,1.41666667 32.4416667,1.41666667 Z M31.1666667,31.1666667 L2.83333333,31.1666667 L2.83333333,11.3333333 L31.1666667,11.3333333 L31.1666667,31.1666667 Z M31.1666667,9.91666667 L2.83333333,9.91666667 L2.83333333,4.25 L8.5,4.25 L8.5,5.66666667 C8.5,6.51666667 9.06666667,7.08333333 9.91666667,7.08333333 C10.7666667,7.08333333 11.3333333,6.51666667 11.3333333,5.66666667 L11.3333333,4.25 L22.6666667,4.25 L22.6666667,5.66666667 C22.6666667,6.51666667 23.2333333,7.08333333 24.0833333,7.08333333 C24.9333333,7.08333333 25.5,6.51666667 25.5,5.66666667 L25.5,4.25 L31.1666667,4.25 L31.1666667,9.91666667 Z" id="Shape"></path>
                        <path d="M14.5916667,25.075 C15.1583333,25.6416667 16.0083333,25.6416667 16.575,25.075 L22.3833333,19.2666667 C22.95,18.7 22.95,17.85 22.3833333,17.2833333 C21.8166667,16.7166667 20.9666667,16.7166667 20.4,17.2833333 L15.5833333,22.2416667 L13.6,20.2583333 C13.0333333,19.6916667 12.1833333,19.6916667 11.6166667,20.2583333 C11.05,20.825 11.05,21.675 11.6166667,22.2416667 L14.5916667,25.075 Z" id="Shape"></path>
                    </g>
                </g>
            </g>
        </g>
    </g>
</svg>
